<?xml version="1.0"?>
<svg width="595.28" height="841.89" xmlns="http://www.w3.org/2000/svg" xmlns:xlink="http://www.w3.org/1999/xlink">
 <g>
  <title>Layer 1</title>
  <g>
   <defs fill="url(#svg_1)" transform="translate(0 1)">
    <rect fill="url(#svg_1)" height="184.252" width="595.276" y="657.614" x="0.002" id="SVGID_1_"/>
    <linearGradient fill="url(#svg_1)" y2="1" x2="1" y1="0" x1="1" id="svg_1">
     <stop fill="url(#svg_1)" stop-color="#ffffff" offset="0"/>
     <stop fill="url(#svg_1)" stop-color="#93536d" offset="1"/>
    </linearGradient>
   </defs>
   <clipPath fill="url(#svg_1)" transform="translate(0 1)" id="SVGID_2_">
    <use fill="url(#svg_1)" xlink:href="#SVGID_1_"/>
   </clipPath>
   <rect height="184.252" width="595.276" fill="url(#svg_1)" clip-path="url(#SVGID_2_)" y="658.614" x="0.002"/>
  </g>
  <path d="m540,276.209015l18.815979,-0.001007l13.78302,14.787994l0.000977,20.184998l-32.599976,-34.971985zm-37.886993,-0.001007h18.81601l51.669983,55.432007v20.184998l-70.485992,-75.617004zm-38.963013,0l18.815002,0.001007l90.633026,97.228973v20.184021l-109.448029,-117.414001zm-22.360992,18.105988l0.001007,-18.106018l1.936981,0l129.872986,139.324036v20.18399l-131.810974,-141.402008zm23.824005,233.20401l-23.824982,-25.55899v-20.186005l42.641968,45.744995l-18.816986,0zm102.925018,-56.587006l-126.749023,-135.972992v-20.18399l131.811035,141.399994l-0.001038,10.613983l-5.060974,4.143005zm-63.962036,56.587006l-62.786987,-67.355011v-20.186005l81.60199,87.541016h-18.815002l0,0zm-62.786987,-151.114014v-20.088989l131.810974,140.22699l-0.002014,20.090027l-131.80896,-140.228027zm100.674011,151.114014l-100.674011,-108v-20.184998l119.489014,128.184998h-18.815002l0,0z" fill="#EBEBEC"/>
  <path d="m540.000977,26.907l18.815002,-0.000999l13.783997,14.788l0.000977,20.185001l-32.599976,-34.972002zm-37.886963,0h18.814026l51.672974,55.430998l-0.000977,20.185005l-70.486023,-75.616003zm-38.962006,-0.000999l18.815002,0.000999l90.633026,97.228003v20.185005l-109.448029,-117.414007zm-22.362,18.107l0.001007,-18.106001h1.936981l129.873016,139.322996l-0.000977,20.184998l-131.810028,-141.401993zm23.824982,233.201996l-23.825989,-25.557999v-20.184998l42.641998,45.74501l-18.81601,-0.002014zm107.984985,-51.348999l-131.809967,-141.209999l0.001007,-20.183998l131.809998,141.401993l-0.001038,19.992004zm-69.02298,51.350006l-62.787994,-67.356003l0.001007,-20.184998l81.602997,87.541l-18.81601,0zm-62.786987,-151.113007v-20.087997l131.809967,140.225998v20.088989l-131.809967,-140.22699zm100.673981,151.114014l-100.674011,-108l0.001007,-20.184998l119.488007,128.184998l-18.815002,0z" fill="#E6E7E8"/>
  <path d="m539.999023,526.179993l18.815002,-0.000977l13.78302,14.786987l0.000977,20.185974l-32.598999,-34.971985zm-37.888031,-0.000977l18.81601,0.000977l51.670959,55.43103l-0.000977,20.184998l-70.485992,-75.617004zm-38.962006,-0.001038l18.815002,0.000977l90.632996,97.229004v20.184998l-109.447998,-117.414978zm-22.360992,18.106995l0.001007,-18.106018l1.936981,0.001038l129.873016,139.322998l-0.000977,20.184998l-131.810028,-141.403015zm23.824005,233.203003l-23.825012,-25.559021l-0.000977,-20.184998l42.642975,45.744019l-18.816986,0zm102.924011,-56.586975l-126.748016,-135.971985v-20.184998l131.809967,141.401978v10.613037l-5.061951,4.141968zm-63.960999,56.586975l-62.787994,-67.35498l0.001007,-20.184998l81.602966,87.540955l-18.815979,-0.000977zm-62.788025,-151.112976v-20.088989l131.810974,140.22699l-0.000977,20.090027l-131.809998,-140.228027zm100.674011,151.114014l-100.673004,-108.001038v-20.184998l119.488983,128.184998l-18.815979,0.001038z" fill="#EBEBEC"/>
  <path d="m446.779999,841.909973l-5.993011,-6.375977v-20.090027l24.876007,26.466003h-18.882996l0,0zm93.217987,-106.57196h18.814026l13.784973,14.788025l-0.000977,20.18396l-32.598022,-34.971985zm-54.632996,106.572998l-44.578003,-47.822998l-0.001007,-20.184998l63.39502,68.007996h-18.81601l0,0zm16.744995,-106.572998l18.815002,-0.000977l51.671997,55.431946v20.186035l-70.487,-75.617004zm21.142029,106.57196l-82.466003,-88.466003l0.001007,-18.106018h1.937988l99.342987,106.572021h-18.815979l0,0zm39.23999,0l-99.343994,-106.572998l18.815979,0.000977l90.632019,97.228027l0.000977,9.346008l-10.10498,-0.002014z" fill="#EBEBEC"/>
  <g>
   <defs>
    <path d="m465.742004,96.383003c-0.79599,0.655998 -1.192993,1.556999 -1.192993,2.703995c0,0.654999 0.116974,1.194 0.35199,1.615005c0.187012,0.490997 0.514984,0.865997 0.980988,1.122993c0.39801,0.282005 1.195007,0.551003 2.388,0.808006l0.281006,0.07l0.070007,0.034996c2.105988,0.468002 3.160004,1.078003 3.160004,1.827003c0,0.490997 -0.188019,0.864998 -0.563019,1.123001c-0.373993,0.257996 -0.924988,0.385994 -1.648987,0.385994c-0.819,0 -1.463989,-0.163994 -1.932007,-0.491997c-0.442993,-0.279999 -0.713989,-0.773003 -0.807007,-1.473999h-2.457977c0.069977,1.334 0.537994,2.339996 1.403992,3.018997c0.79599,0.679001 1.988007,1.019005 3.580994,1.019005c1.546021,0 2.738007,-0.328003 3.580994,-0.983002c0.844025,-0.703003 1.265015,-1.686005 1.265015,-2.949005c0,-0.585999 -0.128998,-1.125 -0.386017,-1.615997c-0.259979,-0.445 -0.620972,-0.806999 -1.088989,-1.088997c-0.328003,-0.139999 -0.654999,-0.280006 -0.983002,-0.420006c-0.187988,-0.046997 -0.437988,-0.112 -0.753998,-0.194c-0.31601,-0.081993 -0.686005,-0.192993 -1.105988,-0.334c-0.188019,-0.021996 -0.480011,-0.091995 -0.878998,-0.209999c-1.356018,-0.304001 -2.036011,-0.771996 -2.036011,-1.403999c0,-0.468002 0.175995,-0.831001 0.527008,-1.088997c0.302979,-0.258003 0.806976,-0.386002 1.509003,-0.386002c0.72699,0 1.299988,0.153 1.720978,0.456001c0.212006,0.165001 0.374023,0.363998 0.490997,0.598c0.235016,0.490997 0.621002,0.737 1.159027,0.737h1.404999c-0.048004,-1.169998 -0.469025,-2.119003 -1.266022,-2.844002c-0.770996,-0.655998 -1.872986,-0.984001 -3.299988,-0.984001c-1.519012,0 -2.678009,0.317001 -3.473999,0.948006" id="SVGID_4_"/>
   </defs>
   <clipPath id="SVGID_5_">
    <use xlink:href="#SVGID_4_"/>
   </clipPath>
   <linearGradient y2="56.658964" x2="-15.703477" y1="56.658964" x1="-15.805196" gradientTransform="matrix(0 11.7164 11.7164 0 -9086.8877 -3524.7671)" id="SVGID_6_">
    <stop stop-color="#00AEEF" offset="0"/>
    <stop stop-color="#2A3990" offset="1"/>
   </linearGradient>
   <rect height="12.711" width="9.831" fill="url(#SVGID_6_)" clip-path="url(#SVGID_5_)" y="95.435" x="464.373"/>
  </g>
  <g>
   <defs>
    <path d="m482.928009,98.542999c-0.479004,0.128998 -0.894989,0.345001 -1.244995,0.649002c-0.421997,-0.350998 -0.890015,-0.584999 -1.403992,-0.702003c-0.516022,-0.116997 -1.041016,-0.174995 -1.57901,-0.174995c-1.007996,0.046997 -1.925995,0.338997 -2.756989,0.876999c-0.832001,0.539001 -1.247009,1.602997 -1.247009,3.195v5.477997h2.458008v-5.968994c0,-0.562004 0.164001,-0.971001 0.490997,-1.229004c0.326996,-0.256996 0.701996,-0.386002 1.122986,-0.386002c0.421997,0 0.803009,0.129005 1.143005,0.386002c0.338013,0.258003 0.507996,0.667 0.507996,1.229004v0.490997v5.477997h2.423004v-5.477997v-0.490997c0,-0.562004 0.169006,-0.971001 0.51001,-1.229004c0.338989,-0.256996 0.720001,-0.386002 1.140991,-0.386002c0.421997,0 0.802002,0.129005 1.140991,0.386002c0.33902,0.258003 0.509003,0.667 0.509003,1.229004v4.773994c0,0.352005 0.110992,0.639 0.334015,0.861c0.223999,0.222 0.509979,0.334 0.859985,0.334h1.229004v-5.477997c0,-1.639 -0.43399,-2.726997 -1.299988,-3.264999c-0.865021,-0.538002 -1.813019,-0.806999 -2.844025,-0.806999c-0.515991,0.022995 -1.014008,0.098999 -1.493988,0.227997" id="SVGID_7_"/>
   </defs>
   <clipPath id="SVGID_8_">
    <use xlink:href="#SVGID_7_"/>
   </clipPath>
   <linearGradient y2="75.11118" x2="-11.876462" y1="75.11118" x1="-11.948527" gradientTransform="matrix(0 11.7161 11.7161 0 -9074.3535 -3524.6987)" id="SVGID_9_">
    <stop stop-color="#00AEEF" offset="0"/>
    <stop stop-color="#2A3990" offset="1"/>
   </linearGradient>
   <rect height="9.55" width="13.868" fill="url(#SVGID_9_)" clip-path="url(#SVGID_8_)" y="98.315" x="474.695"/>
  </g>
  <g>
   <defs>
    <path d="m491.618988,105.862999c-0.210999,-0.209999 -0.316986,-0.490997 -0.316986,-0.841995c0,-0.258003 0.082977,-0.515007 0.246979,-0.772003c0.188019,-0.188004 0.490997,-0.340004 0.912018,-0.458l0.807983,-0.175003c0.585022,-0.139999 1.041016,-0.292999 1.369019,-0.455994v0.877998c0,0.654999 -0.188019,1.169998 -0.562012,1.543999c-0.375,0.375 -0.889984,0.561996 -1.544006,0.561996c-0.39798,0 -0.702972,-0.093994 -0.912994,-0.280998m-1.369995,-6.740997c-0.562988,0.467995 -0.889008,1.066002 -0.983002,1.791h2.354004c0.117004,-0.258003 0.303986,-0.434006 0.561005,-0.527c0.257996,-0.093002 0.549988,-0.140999 0.877991,-0.140999c0.304993,0 0.639008,0.054001 1.001007,0.158997s0.544006,0.333 0.544006,0.684998c0,0.468002 -0.515015,0.772003 -1.545013,0.912003c-0.210999,0.024002 -0.397003,0.053001 -0.562012,0.087997c-0.162994,0.035004 -0.303986,0.053001 -0.42099,0.053001c-0.890991,0.139999 -1.621002,0.421005 -2.194,0.842003c-0.574005,0.420998 -0.859985,1.124001 -0.859985,2.107002c0,1.052994 0.315979,1.807999 0.946991,2.264c0.631989,0.456993 1.369995,0.684998 2.212006,0.684998c0.421997,0 0.906982,-0.028999 1.457977,-0.087997c0.549011,-0.058006 1.071014,-0.216003 1.563019,-0.473007c0.467987,-0.233994 0.872009,-0.614998 1.210999,-1.140999c0.338989,-0.527 0.509003,-1.258995 0.509003,-2.195999v-3.195c0,-0.841995 -0.33902,-1.497002 -1.018005,-1.964996c-0.654999,-0.445 -1.640015,-0.667 -2.949005,-0.667c-1.171997,0 -2.072998,0.268997 -2.705994,0.806999" id="SVGID_10_"/>
   </defs>
   <clipPath id="SVGID_11_">
    <use xlink:href="#SVGID_10_"/>
   </clipPath>
   <linearGradient y2="73.759497" x2="-22.664716" y1="73.759497" x1="-22.791315" gradientTransform="matrix(0 11.716 11.716 0 -9062.9463 -3524.6758)" id="SVGID_12_">
    <stop stop-color="#00AEEF" offset="0"/>
    <stop stop-color="#2A3990" offset="1"/>
   </linearGradient>
   <rect height="9.725" width="7.899" fill="url(#SVGID_12_)" clip-path="url(#SVGID_11_)" y="98.315" x="489.021"/>
  </g>
  <g>
   <defs>
    <path d="m502.362,98.526001h-0.175995c-0.632019,0 -1.247009,0.081001 -1.843994,0.245003c-0.596008,0.163994 -1.117004,0.420998 -1.562012,0.771996c-0.470001,0.375 -0.837006,0.873001 -1.105988,1.493004c-0.269012,0.619995 -0.403015,1.385994 -0.403015,2.298996v4.529999h2.457001v-4.810997c0,-0.702003 0.164001,-1.216003 0.490997,-1.544998c0.328003,-0.327003 0.830994,-0.491005 1.51001,-0.491005h0.80899v-2.491997h-0.175995l0,0z" id="SVGID_13_"/>
   </defs>
   <clipPath id="SVGID_14_">
    <use xlink:href="#SVGID_13_"/>
   </clipPath>
   <linearGradient y2="76.785656" x2="-35.557045" y1="76.785656" x1="-35.746793" gradientTransform="matrix(0 11.7162 11.7162 0 -9056.1436 -3524.7214)" id="SVGID_15_">
    <stop stop-color="#00AEEF" offset="0"/>
    <stop stop-color="#2A3990" offset="1"/>
   </linearGradient>
   <rect height="9.339" width="5.267" fill="url(#SVGID_15_)" clip-path="url(#SVGID_14_)" y="98.526" x="497.271"/>
  </g>
  <g>
   <defs>
    <path d="m503.063995,95.787003v10.321999c0,1.076996 0.450012,1.650002 1.35199,1.721001c0.901001,0.07 1.739014,0.082001 2.511017,0.034996v-1.825996h-0.737c-0.468994,0 -0.701996,-0.199005 -0.701996,-0.597v-5.196999h0.246979c0.325012,0 0.606018,-0.110001 0.84201,-0.333c0.233002,-0.222 0.351013,-0.509003 0.351013,-0.860001v-0.491005h-1.438995v-1.580994c0,-0.327003 -0.117004,-0.608002 -0.35202,-0.842003c-0.233002,-0.234001 -0.502991,-0.350998 -0.807007,-0.350998h-1.265991l0,0z" id="SVGID_16_"/>
   </defs>
   <clipPath id="SVGID_17_">
    <use xlink:href="#SVGID_16_"/>
   </clipPath>
   <linearGradient y2="59.368247" x2="-49.992703" y1="59.368247" x1="-50.251507" gradientTransform="matrix(0 11.7164 11.7164 0 -9051.1768 -3524.7671)" id="SVGID_18_">
    <stop stop-color="#00AEEF" offset="0"/>
    <stop stop-color="#2A3990" offset="1"/>
   </linearGradient>
   <rect height="12.125" width="3.862" fill="url(#SVGID_18_)" clip-path="url(#SVGID_17_)" y="95.787" x="503.064"/>
  </g>
  <g>
   <defs>
    <path d="m509.119995,95.787003c-0.35199,0 -0.648987,0.121994 -0.895996,0.367996s-0.367004,0.543999 -0.367004,0.895004v10.814995h2.457001v-5.336998h3.440033c0.350952,0 0.648987,-0.124001 0.895996,-0.367996c0.243958,-0.247002 0.367004,-0.545006 0.367004,-0.896004v-0.807999h-4.704041v-2.598h6.319031v-2.070999h-7.512024l0,0z" id="SVGID_19_"/>
   </defs>
   <clipPath id="SVGID_20_">
    <use xlink:href="#SVGID_19_"/>
   </clipPath>
   <linearGradient y2="59.599257" x2="-22.546123" y1="59.599257" x1="-22.660013" gradientTransform="matrix(0 11.7164 11.7164 0 -9043.9268 -3524.7671)" id="SVGID_21_">
    <stop stop-color="#FBB040" offset="0"/>
    <stop stop-color="#F15A29" offset="1"/>
   </linearGradient>
   <rect height="12.078" width="8.776" fill="url(#SVGID_21_)" clip-path="url(#SVGID_20_)" y="95.787" x="507.857"/>
  </g>
  <g>
   <defs>
    <path d="m519.127991,105.950996c-0.351013,-0.127998 -0.596008,-0.286995 -0.737,-0.473999c-0.351013,-0.420998 -0.551025,-1.163994 -0.596985,-2.229996c-0.046997,-1.065002 0.175964,-1.866005 0.665955,-2.404999c0.164001,-0.163002 0.423035,-0.298004 0.774048,-0.403c0.350952,-0.105003 0.700989,-0.100006 1.052979,0.016998c0.351013,0.116997 0.661011,0.386002 0.93103,0.807999c0.268982,0.420998 0.401978,1.053001 0.401978,1.896004c-0.02301,0.935997 -0.174011,1.613998 -0.455017,2.035995c-0.281982,0.421997 -0.604004,0.683998 -0.96698,0.791c-0.161987,0.046997 -0.324036,0.070999 -0.484985,0.070999c-0.195984,0 -0.390991,-0.035995 -0.585022,-0.107002m-0.281006,-7.584c-0.960022,0.129005 -1.744019,0.545006 -2.35199,1.247002c-0.375,0.421005 -0.650024,0.946999 -0.825012,1.579002c-0.176025,0.631996 -0.263,1.264999 -0.263,1.895996c0,0.773003 0.104004,1.516006 0.315002,2.230003c0.210022,0.713997 0.562012,1.280998 1.054016,1.703003c0.467957,0.420998 1.092957,0.719994 1.877991,0.894997c0.784973,0.176003 1.562012,0.157997 2.334961,-0.052002c0.866028,-0.186996 1.580017,-0.667 2.142029,-1.439995c0.257019,-0.375 0.468018,-0.831001 0.630981,-1.369003c0.164001,-0.538002 0.247009,-1.181999 0.247009,-1.931c0,-1.029999 -0.200012,-1.931999 -0.598022,-2.704002c-0.420959,-0.865997 -1.076965,-1.473999 -1.964966,-1.824997c-0.530029,-0.193001 -1.10498,-0.289001 -1.723999,-0.289001c-0.281006,0 -0.573975,0.020004 -0.875,0.059998" id="SVGID_22_"/>
   </defs>
   <clipPath id="SVGID_23_">
    <use xlink:href="#SVGID_22_"/>
   </clipPath>
   <linearGradient y2="73.300406" x2="-23.879845" y1="73.300406" x1="-23.996167" gradientTransform="matrix(0 11.7159 11.7159 0 -9036.0771 -3524.6223)" id="SVGID_24_">
    <stop stop-color="#FBB040" offset="0"/>
    <stop stop-color="#F15A29" offset="1"/>
   </linearGradient>
   <rect height="9.786" width="8.602" fill="url(#SVGID_24_)" clip-path="url(#SVGID_23_)" y="98.307" x="515.407"/>
  </g>
  <g>
   <defs>
    <path d="m529.486023,98.526001h-0.177002c-0.632019,0 -1.244995,0.081001 -1.84198,0.245003c-0.598022,0.163994 -1.118042,0.420998 -1.563049,0.771996c-0.469971,0.375 -0.837952,0.873001 -1.105957,1.493004c-0.27002,0.619995 -0.403992,1.385994 -0.403992,2.298996v4.529999h2.457947v-4.810997c0,-0.702003 0.164001,-1.216003 0.491028,-1.544998c0.328003,-0.327003 0.830994,-0.491005 1.512024,-0.491005h0.807007v-2.491997h-0.176025l0,0z" id="SVGID_25_"/>
   </defs>
   <clipPath id="SVGID_26_">
    <use xlink:href="#SVGID_25_"/>
   </clipPath>
   <linearGradient y2="76.785656" x2="-40.69907" y1="76.785656" x1="-40.888781" gradientTransform="matrix(0 11.7162 11.7162 0 -9029.0186 -3524.7214)" id="SVGID_27_">
    <stop stop-color="#FBB040" offset="0"/>
    <stop stop-color="#F15A29" offset="1"/>
   </linearGradient>
   <rect height="9.339" width="5.268" fill="url(#SVGID_27_)" clip-path="url(#SVGID_26_)" y="98.526" x="524.395"/>
  </g>
  <g>
   <defs>
    <path d="m538.5,98.542999c-0.47998,0.128998 -0.89502,0.345001 -1.245972,0.649002c-0.422058,-0.350998 -0.890015,-0.584999 -1.405029,-0.702003c-0.513977,-0.116997 -1.041016,-0.174995 -1.578979,-0.174995c-1.007019,0.046997 -1.926025,0.338997 -2.757019,0.876999c-0.830994,0.539001 -1.245972,1.602997 -1.245972,3.195v5.477997h2.457947v-5.968994c0,-0.562004 0.163025,-0.971001 0.492004,-1.229004c0.327026,-0.256996 0.702026,-0.386002 1.122009,-0.386002c0.421997,0 0.802002,0.129005 1.142029,0.386002c0.339966,0.258003 0.510986,0.667 0.510986,1.229004v0.490997v5.477997h2.421997v-5.477997v-0.490997c0,-0.562004 0.169006,-0.971001 0.507996,-1.229004c0.338989,-0.256996 0.720032,-0.386002 1.142029,-0.386002s0.802002,0.129005 1.141968,0.386002c0.338989,0.258003 0.509033,0.667 0.509033,1.229004v4.773994c0,0.352005 0.110962,0.639 0.332947,0.861c0.223022,0.222 0.51001,0.334 0.861023,0.334h1.229004v-5.477997c0,-1.639 -0.432983,-2.726997 -1.299988,-3.264999s-1.814026,-0.806999 -2.843994,-0.806999c-0.517029,0.022995 -1.014038,0.098999 -1.494019,0.227997" id="SVGID_28_"/>
   </defs>
   <clipPath id="SVGID_29_">
    <use xlink:href="#SVGID_28_"/>
   </clipPath>
   <linearGradient y2="75.111075" x2="-15.882517" y1="75.111075" x1="-15.954577" gradientTransform="matrix(0 11.7161 11.7161 0 -9018.7754 -3524.6987)" id="SVGID_30_">
    <stop stop-color="#FBB040" offset="0"/>
    <stop stop-color="#F15A29" offset="1"/>
   </linearGradient>
   <rect height="9.55" width="13.869" fill="url(#SVGID_30_)" clip-path="url(#SVGID_29_)" y="98.315" x="530.267"/>
  </g>
  <g>
   <defs>
    <path d="m545.460999,99.122002c-0.679016,0.584999 -1.018005,1.321999 -1.018005,2.211998c0,0.702003 0.233032,1.264 0.700989,1.684998c0.423035,0.421005 1.252014,0.785004 2.493042,1.089005c0.210999,0.07 0.526978,0.140999 0.947998,0.209999c0.982971,0.210999 1.474976,0.527 1.474976,0.947998c0,0.280998 -0.140015,0.505005 -0.421997,0.667c-0.304016,0.164001 -0.666992,0.246002 -1.088013,0.246002c-0.585999,0 -1.052979,-0.117004 -1.404968,-0.350998c-0.32605,-0.234001 -0.504028,-0.585007 -0.524048,-1.054001h-2.388977v0.105995c0,1.030006 0.338989,1.814003 1.018982,2.352005c0.655029,0.539001 1.649048,0.807999 2.984009,0.807999c1.403015,0 2.458008,-0.257004 3.15802,-0.773003c0.75,-0.560997 1.124023,-1.356995 1.124023,-2.387001c0,-0.701996 -0.223022,-1.264 -0.667053,-1.684998c-0.468994,-0.398003 -1.29895,-0.749001 -2.492004,-1.053001c-0.093994,0 -0.191956,-0.012001 -0.29895,-0.034996c-0.104004,-0.024002 -0.228027,-0.059006 -0.368042,-0.106003c-1.217957,-0.256996 -1.825989,-0.572998 -1.825989,-0.947998c0,-0.280998 0.106018,-0.492004 0.31604,-0.632004c0.232971,-0.139999 0.583984,-0.210999 1.053955,-0.210999c0.491028,0 0.879028,0.106003 1.15802,0.316002c0.093994,0.094002 0.187988,0.186996 0.279968,0.280998c0.234009,0.399002 0.574036,0.598 1.02002,0.598h1.509033c-0.046997,-0.935997 -0.408997,-1.697998 -1.08905,-2.282997c-0.725952,-0.538002 -1.69696,-0.806999 -2.912964,-0.806999c-1.124023,0 -2.036987,0.268997 -2.739014,0.806999" id="SVGID_31_"/>
   </defs>
   <clipPath id="SVGID_32_">
    <use xlink:href="#SVGID_31_"/>
   </clipPath>
   <linearGradient y2="73.759497" x2="-28.272789" y1="73.759497" x1="-28.393489" gradientTransform="matrix(0 11.716 11.716 0 -9007.54 -3524.6758)" id="SVGID_33_">
    <stop stop-color="#FBB040" offset="0"/>
    <stop stop-color="#F15A29" offset="1"/>
   </linearGradient>
   <rect height="9.725" width="8.285" fill="url(#SVGID_33_)" clip-path="url(#SVGID_32_)" y="98.315" x="544.232"/>
  </g>
  <g>
   <defs>
    <path d="m527.872986,83.008003l0.73999,-0.290001l-0.515991,-0.383003l-0.223999,0.673004zm-1.297974,-37.624004c-0.054993,0.003002 -0.106995,0.006001 -0.161011,0.011002l-41.707001,3.445999c-2.494995,0.206001 -4.153992,2.820999 -3.703979,5.841l5.752991,38.639999c0.365997,2.452003 1.960999,4.023003 3.838013,4.023003c0.434998,0 0.882996,-0.084999 1.334991,-0.261002l33.727966,-13.208l-1.543945,-2.554001l-26.854034,10.055c-0.419006,0.155998 -0.835999,0.231003 -1.238983,0.231003c-1.821014,-0.000999 -3.380005,-1.521004 -3.730011,-3.873001l-4.473999,-29.916c-0.428986,-2.872002 1.161011,-5.404999 3.549011,-5.646l32.451019,-3.278c0.167969,-0.017002 0.333984,-0.025002 0.497986,-0.025002c2.188965,0 4.127014,1.449001 4.442993,3.408001l3.521973,21.938004c0.239014,1.497993 -0.500977,3.151993 -1.781006,4.293999l2.085022,0.445999l-3.268005,1.543999l1.716003,1.271004l1.147034,-0.449005c2.168945,-0.848999 3.740967,-2.938995 3.782959,-4.885002v-0.157997c-0.002991,-0.161003 -0.018005,-0.320999 -0.042969,-0.478996l-4.369019,-26.963001c-0.307007,-1.899002 -2.207031,-3.339001 -4.40802,-3.453003h-0.565979l0,0z" id="SVGID_34_"/>
   </defs>
   <clipPath id="SVGID_35_">
    <use xlink:href="#SVGID_34_"/>
   </clipPath>
   <linearGradient y2="11.72329" x2="-2.323422" y1="11.72329" x1="-2.337596" gradientTransform="matrix(7.201 48.3536 48.3536 -7.201 -42124.293 -8832.2256)" id="SVGID_36_">
    <stop stop-color="#00AEEF" offset="0"/>
    <stop stop-color="#2A3990" offset="1"/>
   </linearGradient>
   <polygon points="534.759,37.312 543.531,96.218 481.755,105.417    472.982,46.512  " fill="url(#SVGID_36_)" clip-path="url(#SVGID_35_)"/>
  </g>
  <g>
   <defs>
    <rect height="62.769" width="88.145" y="45.377" x="464.373" id="SVGID_37_"/>
   </defs>
   <clipPath id="SVGID_38_">
    <use xlink:href="#SVGID_37_"/>
   </clipPath>
   <path d="m528.643005,79.233002l-31.454987,11.667999c-2.096008,0.777 -4.117004,-0.702003 -4.506012,-3.299004l-4.462982,-29.836998c-0.389008,-2.596001 1.053986,-4.891998 3.215973,-5.117001l32.440002,-3.382c2.161011,-0.224998 4.16803,1.152 4.476013,3.066002l3.533997,22.016998c0.307007,1.916 -1.148987,4.107002 -3.242004,4.884003" fill="#E6E7E8" clip-path="url(#SVGID_38_)"/>
   <path d="m523.932983,49.638c1.939026,-0.207001 3.736023,1.022999 4.015015,2.75l3.541992,22.094002c0.276001,1.726997 -1.023987,3.688995 -2.906006,4.379997l-31.46701,11.566002c-1.882996,0.691002 -3.690979,-0.634003 -4.039001,-2.958l-4.453979,-29.759003c-0.348022,-2.326 0.941986,-4.379997 2.881989,-4.588997l32.427002,-3.484001m-0.117981,-0.743l-32.451996,3.278c-2.388,0.241001 -3.977997,2.773998 -3.548004,5.646999l4.472992,29.915001c0.429016,2.873001 2.658997,4.505997 4.970001,3.641998l31.444031,-11.771996c2.30896,-0.866005 3.914001,-3.282005 3.576965,-5.389l-3.523987,-21.937004c-0.338989,-2.106998 -2.554993,-3.625 -4.940002,-3.383999" fill="#FFFFFF" clip-path="url(#SVGID_38_)"/>
   <path d="m493.86499,56.433998l4.298004,-0.577999l0.605988,5.167l-0.664978,0.077l0.664978,-0.077l0.075012,0.634003l-4.256012,0.722l-0.722992,-5.945004zm1.494019,1.156002l0.393005,3.229l1.606995,-0.275002l-0.369995,-3.174999l-1.630005,0.221001z" fill="#414042" clip-path="url(#SVGID_38_)"/>
   <rect height="1.343" width="27.417" fill="#414042" clip-path="url(#SVGID_38_)" transform="matrix(-0.9886 0.1503 -0.1503 -0.9886 1026.97 35.724)" y="56.011" x="498.428"/>
   <path d="m494.772003,63.879002l4.235992,-0.820004l0.610016,5.206001l-0.667999,0.078003l0.667999,-0.078003l0.069977,0.596001l-4.190979,0.966003l-0.725006,-5.948002zm1.484985,1.079998l0.394989,3.225998l1.563019,-0.362l-0.373993,-3.169998l-1.584015,0.306z" fill="#414042" clip-path="url(#SVGID_38_)"/>
   <rect height="1.343" width="27.196" fill="#414042" clip-path="url(#SVGID_38_)" transform="matrix(-0.9783 0.2071 -0.2071 -0.9783 1027.4 18.7112)" y="62.456" x="499.122"/>
   <path d="m495.68399,71.318001l4.165985,-1.057999l0.619019,5.248001l-0.667999,0.077995l0.667999,-0.077995l0.066986,0.562996l-4.126984,1.210999l-0.725006,-5.963997zm1.475006,1.014999l0.393005,3.213997l1.515991,-0.445l-0.371002,-3.165001l-1.537994,0.396004z" fill="#414042" clip-path="url(#SVGID_38_)"/>
   <rect height="1.345" width="27.062" fill="#414042" clip-path="url(#SVGID_38_)" transform="matrix(-0.9645 0.264 -0.264 -0.9645 1026.76 1.1558)" y="68.902" x="499.772"/>
   <path d="m496.589996,78.760002l4.106018,-1.306l0.621979,5.295998l-0.669006,0.075996l0.669006,-0.075996l0.059998,0.528l-4.061981,1.459l-0.726013,-5.976997zm1.470001,0.943001l0.388,3.199997l1.475006,-0.528l-0.371002,-3.147003l-1.492004,0.475006z" fill="#414042" clip-path="url(#SVGID_38_)"/>
   <polygon points="500.873,79.711 526.475,71.058 526.899,72.332 501.304,80.985  " fill="#414042" clip-path="url(#SVGID_38_)"/>
  </g>
  <g>
   <defs>
    <polygon points="497.064,58.863 496.878,58.642 495.857,59.519 497.359,61.272 500.46,55.083 499.259,54.482   " id="SVGID_39_"/>
   </defs>
   <clipPath id="SVGID_40_">
    <use xlink:href="#SVGID_39_"/>
   </clipPath>
   <linearGradient y2="115.984756" x2="-54.961345" y1="115.984756" x1="-55.178594" gradientTransform="matrix(4.603 0 0 -4.603 -617.4708 3933.6873)" id="SVGID_41_">
    <stop stop-color="#FBB03B" offset="0"/>
    <stop stop-color="#F79421" offset="1"/>
   </linearGradient>
   <rect height="6.79" width="4.603" fill="url(#SVGID_41_)" clip-path="url(#SVGID_40_)" y="54.482" x="495.857"/>
  </g>
  <g>
   <defs>
    <polygon points="497.869,65.837 497.709,65.656 496.7,66.542 497.538,67.493 498.21,68.262 501.239,61.883     500.025,61.305   " id="SVGID_42_"/>
   </defs>
   <clipPath id="SVGID_43_">
    <use xlink:href="#SVGID_42_"/>
   </clipPath>
   <linearGradient y2="112.219982" x2="-56.131203" y1="112.219982" x1="-56.351516" gradientTransform="matrix(4.5387 0 0 -4.5387 -596.7692 3886.4795)" id="SVGID_44_">
    <stop stop-color="#FBB03B" offset="0"/>
    <stop stop-color="#F79421" offset="1"/>
   </linearGradient>
   <rect height="6.957" width="4.539" fill="url(#SVGID_44_)" clip-path="url(#SVGID_43_)" y="61.305" x="496.7"/>
  </g>
  <g>
   <defs>
    <polygon points="498.674,72.814 498.544,72.668 497.545,73.568 498.366,74.479 499.054,75.246 502.014,68.68     500.787,68.126   " id="SVGID_45_"/>
   </defs>
   <clipPath id="SVGID_46_">
    <use xlink:href="#SVGID_45_"/>
   </clipPath>
   <linearGradient y2="108.692739" x2="-57.438857" y1="108.692739" x1="-57.662732" gradientTransform="matrix(4.4686 0 0 -4.4686 -574.2566 3834.3445)" id="SVGID_47_">
    <stop stop-color="#FBB03B" offset="0"/>
    <stop stop-color="#F79421" offset="1"/>
   </linearGradient>
   <rect height="7.12" width="4.469" fill="url(#SVGID_47_)" clip-path="url(#SVGID_46_)" y="68.126" x="497.545"/>
  </g>
  <g>
   <defs>
    <path d="m498.393005,80.593002h0.002991l-0.002991,-0.003006v0.003006l0,0zm1.091003,-0.799004l-0.104004,-0.113998l-0.984009,0.913002l0.805023,0.871994l0.703003,0.763l2.884003,-6.751999l-1.232025,-0.525002l-2.071991,4.843002z" id="SVGID_48_"/>
   </defs>
   <clipPath id="SVGID_49_">
    <use xlink:href="#SVGID_48_"/>
   </clipPath>
   <linearGradient y2="105.409985" x2="-58.868294" y1="105.409985" x1="-59.09594" gradientTransform="matrix(4.3934 0 0 -4.3934 -550.1673 3777.9219)" id="SVGID_50_">
    <stop stop-color="#FBB03B" offset="0"/>
    <stop stop-color="#F79421" offset="1"/>
   </linearGradient>
   <rect height="7.277" width="4.395" fill="url(#SVGID_50_)" clip-path="url(#SVGID_49_)" y="74.951" x="498.393"/>
  </g>
  <g>
   <defs>
    <rect height="62.769" width="88.145" y="45.377" x="464.373" id="SVGID_51_"/>
   </defs>
   <clipPath id="SVGID_52_">
    <use xlink:href="#SVGID_51_"/>
   </clipPath>
   <path d="m530.778015,84.320999l-2.164978,-1.603996l2.416992,-0.945999l0.935974,0.692993l-1.187988,1.857002zm-3.881042,1.608002l-1.241028,-2.053001l2.217041,-0.868996l-0.976013,2.921997" fill="#AFB1B4" clip-path="url(#SVGID_52_)"/>
  </g>
  <g>
   <defs>
    <path d="m528.702026,79.605003l-4.590027,1.716995l1.544006,2.554001l2.217041,-0.867996l0.224976,-0.673004l0.515991,0.383003l2.416992,-0.946999l-1.716003,-1.271004l3.268005,-1.543999l-2.084961,-0.445999c-0.52002,0.464996 -1.129028,0.845001 -1.796021,1.095001" id="SVGID_53_"/>
   </defs>
   <clipPath id="SVGID_54_">
    <use xlink:href="#SVGID_53_"/>
   </clipPath>
   <linearGradient y2="96.863356" x2="-21.355995" y1="96.863356" x1="-21.455307" gradientTransform="matrix(7.201 48.3536 48.3536 -7.201 -42124.293 -8832.2256)" id="SVGID_55_">
    <stop stop-color="#007CAA" offset="0"/>
    <stop stop-color="#1A2066" offset="1"/>
   </linearGradient>
   <polygon points="532.398,77.276 533.363,83.76 524.296,85.11 523.33,78.626     " fill="url(#SVGID_55_)" clip-path="url(#SVGID_54_)"/>
  </g>
  <g>
   <defs>
    <rect height="62.769" width="88.145" y="45.377" x="464.373" id="SVGID_56_"/>
   </defs>
   <clipPath id="SVGID_57_">
    <use xlink:href="#SVGID_56_"/>
   </clipPath>
   <path d="m523.708008,80.653999l-2.492981,-4.125l8.39801,1.792999c-0.317017,0.221001 -0.662048,0.404999 -1.030029,0.540001l-4.875,1.792" fill="#A2A4A7" clip-path="url(#SVGID_57_)"/>
   <path d="m524.112,81.321999l-0.403015,-0.668999l4.874023,-1.791c0.367004,-0.136002 0.713989,-0.319 1.028992,-0.540001l0.885986,0.188004c-0.520996,0.463997 -1.128967,0.843994 -1.796997,1.093994l-4.588989,1.718002" fill="#AFB1B4" clip-path="url(#SVGID_57_)"/>
  </g>
  <g>
   <defs>
    <polygon points="521.575,76.041 527.259,85.442 528.459,81.847 531.14,83.834 532.327,81.976 529.676,80.013     532.533,78.259   " id="SVGID_58_"/>
   </defs>
   <clipPath id="SVGID_59_">
    <use xlink:href="#SVGID_58_"/>
   </clipPath>
   <linearGradient y2="81.477154" x2="-21.881186" y1="81.477154" x1="-21.972444" gradientTransform="matrix(10.9576 0 0 -10.9576 -2555.3159 9307.1006)" id="SVGID_60_">
    <stop stop-color="#FBB040" offset="0"/>
    <stop stop-color="#F15A29" offset="1"/>
   </linearGradient>
   <rect height="9.401" width="10.958" fill="url(#SVGID_60_)" clip-path="url(#SVGID_59_)" y="76.041" x="521.575"/>
  </g>
  <g>
   <defs>
    <path d="m465.68399,198.520996c-0.763,0.628006 -1.143005,1.490997 -1.143005,2.589005c0,0.628006 0.112,1.143005 0.335999,1.546005c0.179016,0.470993 0.493011,0.828995 0.942017,1.075989c0.380005,0.269012 1.142975,0.526001 2.283997,0.774002l0.269989,0.067001l0.06601,0.033005c2.018005,0.44899 3.026001,1.030991 3.026001,1.748993c0,0.470001 -0.179993,0.828003 -0.537994,1.074997s-0.886017,0.37001 -1.581024,0.37001c-0.783997,0 -1.39798,-0.156998 -1.847992,-0.471008c-0.425995,-0.268997 -0.682983,-0.73999 -0.772003,-1.411987h-2.354004c0.06601,1.278 0.515015,2.240997 1.344025,2.890991c0.761993,0.651001 1.904999,0.975998 3.429993,0.975998c1.479004,0 2.621979,-0.315002 3.428986,-0.942001c0.807007,-0.671997 1.210022,-1.613998 1.210022,-2.82399c0,-0.560013 -0.123016,-1.076004 -0.370026,-1.546005c-0.246002,-0.425995 -0.593994,-0.772995 -1.040985,-1.042007c-0.315002,-0.134995 -0.627991,-0.269989 -0.942017,-0.403992c-0.178986,-0.044998 -0.419983,-0.106003 -0.721985,-0.184998c-0.302002,-0.078003 -0.656006,-0.184998 -1.05899,-0.320007c-0.181,-0.020996 -0.460022,-0.088989 -0.84201,-0.200989c-1.299011,-0.291 -1.947998,-0.739014 -1.947998,-1.345001c0,-0.448013 0.167999,-0.795013 0.503998,-1.042007c0.290985,-0.246002 0.772003,-0.369995 1.444,-0.369995c0.695007,0 1.243988,0.147003 1.647003,0.438004c0.201996,0.156998 0.359009,0.347 0.471008,0.570999c0.224976,0.470993 0.593994,0.705994 1.109985,0.705994h1.343994c-0.044983,-1.119995 -0.447998,-2.028 -1.209991,-2.723007c-0.73999,-0.626999 -1.794006,-0.940994 -3.160004,-0.940994c-1.455994,0 -2.565979,0.302002 -3.326996,0.906998" id="SVGID_61_"/>
   </defs>
   <clipPath id="SVGID_62_">
    <use xlink:href="#SVGID_61_"/>
   </clipPath>
   <linearGradient y2="50.68539" x2="-16.402571" y1="50.68539" x1="-16.508818" gradientTransform="matrix(0 11.218 11.218 0 -8667.5166 -3268.6138)" id="SVGID_63_">
    <stop stop-color="#00AEEF" offset="0"/>
    <stop stop-color="#2A3990" offset="1"/>
   </linearGradient>
   <rect height="12.17" width="9.412" fill="url(#SVGID_63_)" clip-path="url(#SVGID_62_)" y="197.614" x="464.373"/>
  </g>
  <g>
   <defs>
    <path d="m482.140015,200.589005c-0.459991,0.123001 -0.856995,0.330994 -1.192993,0.621994c-0.403015,-0.337006 -0.852997,-0.559998 -1.346008,-0.671997c-0.492004,-0.112 -0.997009,-0.169006 -1.511993,-0.169006c-0.964996,0.044998 -1.844025,0.325012 -2.639008,0.841003c-0.79599,0.516006 -1.194,1.535004 -1.194,3.059006v5.244003h2.354004v-5.715012c0,-0.537994 0.154999,-0.929001 0.470001,-1.177002c0.312988,-0.244995 0.673004,-0.368988 1.075989,-0.368988c0.402008,0 0.768005,0.123993 1.09201,0.368988c0.324982,0.248001 0.488007,0.639008 0.488007,1.177002v0.471008v5.244003h2.317993v-5.244003v-0.471008c0,-0.537994 0.162994,-0.929001 0.487,-1.177002c0.325989,-0.244995 0.690002,-0.368988 1.093018,-0.368988c0.403992,0 0.768982,0.123993 1.092987,0.368988c0.325012,0.248001 0.487,0.639008 0.487,1.177002v4.572006c0,0.33699 0.106995,0.610992 0.320007,0.824005c0.212982,0.212997 0.488007,0.319 0.822998,0.319h1.177002v-5.244003c0,-1.569 -0.415009,-2.611008 -1.244019,-3.126007c-0.828979,-0.515991 -1.737,-0.774002 -2.722992,-0.774002c-0.492004,0.02301 -0.968018,0.096008 -1.427002,0.219009" id="SVGID_64_"/>
   </defs>
   <clipPath id="SVGID_65_">
    <use xlink:href="#SVGID_64_"/>
   </clipPath>
   <linearGradient y2="67.157184" x2="-12.370202" y1="67.157184" x1="-12.445509" gradientTransform="matrix(0 11.218 11.218 0 -8655.626 -3268.5894)" id="SVGID_66_">
    <stop stop-color="#00AEEF" offset="0"/>
    <stop stop-color="#2A3990" offset="1"/>
   </linearGradient>
   <rect height="9.144" width="13.279" fill="url(#SVGID_66_)" clip-path="url(#SVGID_65_)" y="200.37" x="474.256"/>
  </g>
  <g>
   <defs>
    <path d="m490.459991,207.598007c-0.201996,-0.201004 -0.303009,-0.470001 -0.303009,-0.806992c0,-0.246002 0.07901,-0.492004 0.235016,-0.738998c0.178986,-0.180008 0.470978,-0.325012 0.873993,-0.437012l0.772003,-0.168991c0.561005,-0.134003 0.997009,-0.279007 1.311981,-0.436005v0.841003c0,0.626999 -0.179993,1.119995 -0.537994,1.477997s-0.850983,0.537994 -1.479004,0.537994c-0.380981,0 -0.671967,-0.090012 -0.872986,-0.268997m-1.311005,-6.45401c-0.537994,0.447998 -0.854004,1.020004 -0.941986,1.714005h2.252991c0.110992,-0.247009 0.290985,-0.415009 0.537994,-0.503998c0.246002,-0.089005 0.524994,-0.13501 0.839996,-0.13501c0.291016,0 0.611023,0.05101 0.958008,0.151001c0.347992,0.100998 0.520996,0.320007 0.520996,0.656006c0,0.447998 -0.492981,0.740005 -1.479004,0.873993c-0.201996,0.02301 -0.380981,0.05101 -0.537994,0.084c-0.157013,0.034012 -0.290985,0.050003 -0.403992,0.050003c-0.851013,0.13501 -1.550995,0.404007 -2.100006,0.807999c-0.549011,0.403 -0.824005,1.075012 -0.824005,2.016998c0,1.008011 0.303009,1.730011 0.90802,2.167999c0.60498,0.437012 1.311981,0.656006 2.117981,0.656006c0.403015,0 0.868011,-0.028992 1.394989,-0.084991s1.025024,-0.207001 1.496002,-0.453003c0.447998,-0.225006 0.835022,-0.589005 1.160004,-1.093002c0.324005,-0.503998 0.487,-1.203995 0.487,-2.102005v-3.057999c0,-0.806992 -0.324982,-1.434006 -0.975983,-1.882996c-0.628021,-0.425003 -1.567993,-0.639008 -2.822998,-0.639008c-1.121002,0 -1.983002,0.258011 -2.588013,0.774002" id="SVGID_67_"/>
   </defs>
   <clipPath id="SVGID_68_">
    <use xlink:href="#SVGID_67_"/>
   </clipPath>
   <linearGradient y2="65.938459" x2="-23.529864" y1="65.938459" x1="-23.66207" gradientTransform="matrix(0 11.218 11.218 0 -8644.8447 -3268.6138)" id="SVGID_69_">
    <stop stop-color="#00AEEF" offset="0"/>
    <stop stop-color="#2A3990" offset="1"/>
   </linearGradient>
   <rect height="9.313" width="7.564" fill="url(#SVGID_69_)" clip-path="url(#SVGID_68_)" y="200.37" x="487.972"/>
  </g>
  <g>
   <defs>
    <path d="m500.747009,200.572006h-0.169006c-0.604004,0 -1.192993,0.07901 -1.765991,0.236008c-0.570007,0.155991 -1.069,0.403 -1.493988,0.738998c-0.449005,0.358994 -0.803009,0.834991 -1.061005,1.429001c-0.257019,0.593994 -0.386017,1.326996 -0.386017,2.201004v4.33699h2.354004v-4.606003c0,-0.67099 0.154999,-1.164001 0.471008,-1.477997c0.312988,-0.313995 0.794983,-0.470993 1.444,-0.470993h0.773987v-2.387009h-0.166992l0,0z" id="SVGID_70_"/>
   </defs>
   <clipPath id="SVGID_71_">
    <use xlink:href="#SVGID_70_"/>
   </clipPath>
   <linearGradient y2="68.651644" x2="-36.85898" y1="68.651644" x1="-37.057275" gradientTransform="matrix(0 11.218 11.218 0 -8638.126 -3268.5894)" id="SVGID_72_">
    <stop stop-color="#00AEEF" offset="0"/>
    <stop stop-color="#2A3990" offset="1"/>
   </linearGradient>
   <rect height="8.942" width="5.043" fill="url(#SVGID_72_)" clip-path="url(#SVGID_71_)" y="200.572" x="495.872"/>
  </g>
  <g>
   <defs>
    <path d="m501.419006,197.949997v9.882996c0,1.032013 0.431,1.581009 1.294006,1.647003c0.862,0.068008 1.664001,0.07901 2.403992,0.034012v-1.748001h-0.705994c-0.449005,0 -0.673004,-0.190002 -0.673004,-0.570999v-4.976013h0.235016c0.312988,0 0.582001,-0.104996 0.807983,-0.319992c0.223999,-0.212006 0.335999,-0.486008 0.335999,-0.822006v-0.470993h-1.378998v-1.514008c0,-0.312988 -0.110992,-0.582001 -0.334991,-0.806c-0.226013,-0.223999 -0.483002,-0.335999 -0.77301,-0.335999h-1.210999l0,0z" id="SVGID_73_"/>
   </defs>
   <clipPath id="SVGID_74_">
    <use xlink:href="#SVGID_73_"/>
   </clipPath>
   <linearGradient y2="53.105818" x2="-51.764983" y1="53.105818" x1="-52.0354" gradientTransform="matrix(0 11.2179 11.2179 0 -8633.1738 -3268.5574)" id="SVGID_75_">
    <stop stop-color="#00AEEF" offset="0"/>
    <stop stop-color="#2A3990" offset="1"/>
   </linearGradient>
   <rect height="11.609" width="3.698" fill="url(#SVGID_75_)" clip-path="url(#SVGID_74_)" y="197.95" x="501.419"/>
  </g>
  <g>
   <defs>
    <path d="m507.217987,197.949997c-0.337006,0 -0.622009,0.117004 -0.856995,0.352997c-0.235992,0.235001 -0.354004,0.521011 -0.354004,0.85701v10.354004h2.355011v-5.110001h3.294983c0.335022,0 0.621033,-0.118011 0.85498,-0.353012c0.235046,-0.233994 0.354004,-0.520996 0.354004,-0.855988v-0.77301h-4.503967v-2.488998h6.049988v-1.983002h-7.194l0,0z" id="SVGID_76_"/>
   </defs>
   <clipPath id="SVGID_77_">
    <use xlink:href="#SVGID_76_"/>
   </clipPath>
   <linearGradient y2="53.312465" x2="-23.321099" y1="53.312465" x1="-23.440076" gradientTransform="matrix(0 11.218 11.218 0 -8626.3135 -3268.5894)" id="SVGID_78_">
    <stop stop-color="#FBB040" offset="0"/>
    <stop stop-color="#F15A29" offset="1"/>
   </linearGradient>
   <rect height="11.564" width="8.405" fill="url(#SVGID_78_)" clip-path="url(#SVGID_77_)" y="197.95" x="506.006"/>
  </g>
  <g>
   <defs>
    <path d="m516.799011,207.682007c-0.335999,-0.121994 -0.570007,-0.274002 -0.705994,-0.453995c-0.335022,-0.403 -0.525024,-1.115005 -0.570984,-2.134003c-0.045044,-1.020004 0.167969,-1.787994 0.639954,-2.302994c0.156006,-0.157013 0.403015,-0.286011 0.740051,-0.387009c0.334961,-0.099991 0.671997,-0.095001 1.007996,0.018005c0.334961,0.110992 0.632996,0.369003 0.890991,0.772995c0.256958,0.403 0.385986,1.007996 0.385986,1.815002c-0.021973,0.895996 -0.16803,1.546005 -0.437012,1.949005c-0.268982,0.403992 -0.576965,0.655991 -0.924011,0.755997c-0.156006,0.046005 -0.311951,0.069 -0.466003,0.069c-0.188965,-0.000015 -0.375977,-0.034012 -0.560974,-0.102005m-0.268005,-7.261002c-0.919983,0.123001 -1.669983,0.521011 -2.252991,1.193008c-0.358032,0.403 -0.622009,0.906998 -0.789978,1.513c-0.16803,0.604996 -0.251038,1.209991 -0.251038,1.815002c0,0.73999 0.100037,1.451996 0.302002,2.134995c0.200989,0.684006 0.538025,1.227005 1.007996,1.630997c0.447998,0.402008 1.046997,0.688004 1.799011,0.856995c0.75,0.167007 1.495972,0.151001 2.234985,-0.050995c0.829041,-0.179001 1.513,-0.638992 2.049988,-1.377991c0.247009,-0.359009 0.449036,-0.795013 0.606018,-1.311005c0.156006,-0.514999 0.234009,-1.132004 0.234009,-1.848999c0,-0.986008 -0.189026,-1.848999 -0.570984,-2.589005c-0.402039,-0.828995 -1.031006,-1.412003 -1.882996,-1.746994c-0.507019,-0.184998 -1.05603,-0.278 -1.647034,-0.278c-0.270996,-0.000015 -0.551025,0.019989 -0.838989,0.05899" id="SVGID_79_"/>
   </defs>
   <clipPath id="SVGID_80_">
    <use xlink:href="#SVGID_79_"/>
   </clipPath>
   <linearGradient y2="65.538252" x2="-24.683578" y1="65.538252" x1="-24.805026" gradientTransform="matrix(0 11.2176 11.2176 0 -8618.8623 -3268.4771)" id="SVGID_81_">
    <stop stop-color="#FBB040" offset="0"/>
    <stop stop-color="#F15A29" offset="1"/>
   </linearGradient>
   <rect height="9.37" width="8.234" fill="url(#SVGID_81_)" clip-path="url(#SVGID_80_)" y="200.362" x="513.237"/>
  </g>
  <g>
   <defs>
    <path d="m526.71698,200.572006h-0.16803c-0.60498,0 -1.192993,0.07901 -1.764954,0.236008c-0.572021,0.155991 -1.070007,0.403 -1.496033,0.738998c-0.447998,0.358994 -0.802002,0.834991 -1.057983,1.429001c-0.26001,0.593994 -0.388,1.326996 -0.388,2.201004v4.33699h2.354004v-4.606003c0,-0.67099 0.156006,-1.164001 0.469971,-1.477997c0.314026,-0.313995 0.796021,-0.470993 1.446045,-0.470993h0.771973v-2.387009h-0.166992l0,0z" id="SVGID_82_"/>
   </defs>
   <clipPath id="SVGID_83_">
    <use xlink:href="#SVGID_82_"/>
   </clipPath>
   <linearGradient y2="68.651644" x2="-42.017284" y1="68.651644" x1="-42.215618" gradientTransform="matrix(0 11.218 11.218 0 -8612.1572 -3268.5894)" id="SVGID_84_">
    <stop stop-color="#FBB040" offset="0"/>
    <stop stop-color="#F15A29" offset="1"/>
   </linearGradient>
   <rect height="8.942" width="5.042" fill="url(#SVGID_84_)" clip-path="url(#SVGID_83_)" y="200.572" x="521.843"/>
  </g>
  <g>
   <defs>
    <path d="m535.348022,200.589005c-0.460022,0.123001 -0.856018,0.330994 -1.192017,0.621994c-0.403992,-0.337006 -0.854004,-0.559998 -1.346008,-0.671997c-0.492981,-0.112 -0.996948,-0.169006 -1.513,-0.169006c-0.963989,0.044998 -1.843994,0.325012 -2.638977,0.841003c-0.796021,0.516006 -1.19397,1.535004 -1.19397,3.059006v5.244003h2.353943v-5.715012c0,-0.537994 0.155029,-0.929001 0.470032,-1.177002c0.312988,-0.244995 0.672974,-0.368988 1.075989,-0.368988s0.767029,0.123993 1.09198,0.368988c0.325012,0.248001 0.488037,0.639008 0.488037,1.177002v0.471008v5.244003h2.317993v-5.244003v-0.471008c0,-0.537994 0.163025,-0.929001 0.487976,-1.177002c0.324036,-0.244995 0.688049,-0.368988 1.093018,-0.368988c0.403015,0 0.768005,0.123993 1.093018,0.368988c0.322998,0.248001 0.487,0.639008 0.487,1.177002v4.572006c0,0.33699 0.105957,0.610992 0.31897,0.824005c0.213013,0.212997 0.487,0.319 0.824036,0.319h1.177002v-5.244003c0,-1.569 -0.415039,-2.611008 -1.244995,-3.126007c-0.829041,-0.515991 -1.737,-0.774002 -2.723022,-0.774002c-0.492004,0.02301 -0.968018,0.096008 -1.427002,0.219009" id="SVGID_85_"/>
   </defs>
   <clipPath id="SVGID_86_">
    <use xlink:href="#SVGID_85_"/>
   </clipPath>
   <linearGradient y2="67.157184" x2="-16.375852" y1="67.157184" x1="-16.451153" gradientTransform="matrix(0 11.218 11.218 0 -8602.415 -3268.5894)" id="SVGID_87_">
    <stop stop-color="#FBB040" offset="0"/>
    <stop stop-color="#F15A29" offset="1"/>
   </linearGradient>
   <rect height="9.144" width="13.28" fill="url(#SVGID_87_)" clip-path="url(#SVGID_86_)" y="200.37" x="527.464"/>
  </g>
  <g>
   <defs>
    <path d="m542.013,201.143997c-0.650024,0.559998 -0.974976,1.266006 -0.974976,2.117004c0,0.673004 0.223999,1.210999 0.671997,1.613998c0.402954,0.404007 1.198975,0.751007 2.386963,1.042007c0.202026,0.067993 0.505005,0.134995 0.90802,0.201996c0.940979,0.201004 1.411987,0.50499 1.411987,0.90799c0,0.268005 -0.13501,0.48201 -0.403992,0.639008c-0.291992,0.156006 -0.638977,0.235001 -1.041992,0.235001c-0.559998,0 -1.007996,-0.112 -1.345032,-0.337006c-0.313965,-0.222992 -0.481995,-0.559998 -0.503967,-1.007996h-2.286011v0.100998c0,0.986008 0.325012,1.737 0.974976,2.251999c0.627014,0.514999 1.580017,0.774002 2.858032,0.774002c1.343994,0 2.352966,-0.246994 3.024963,-0.740005c0.717041,-0.537994 1.075012,-1.299988 1.075012,-2.285995c0,-0.671997 -0.212952,-1.210999 -0.638977,-1.613998c-0.448975,-0.380997 -1.244019,-0.716995 -2.387024,-1.009003c-0.088989,0 -0.185974,-0.009995 -0.284973,-0.03299c-0.101013,-0.022003 -0.218994,-0.056 -0.354004,-0.101013c-1.166016,-0.245987 -1.747986,-0.548996 -1.747986,-0.90799c0,-0.268005 0.100952,-0.471008 0.303955,-0.605011c0.223022,-0.133987 0.559021,-0.200989 1.008057,-0.200989c0.468994,0 0.839966,0.100998 1.108948,0.302002c0.08905,0.089996 0.179016,0.179993 0.268005,0.268997c0.223999,0.382004 0.549011,0.571991 0.976013,0.571991h1.445007c-0.044983,-0.896988 -0.392029,-1.625 -1.041992,-2.184998c-0.694031,-0.515991 -1.625,-0.774002 -2.790039,-0.774002c-1.074951,0 -1.948975,0.258011 -2.620972,0.774002" id="SVGID_88_"/>
   </defs>
   <clipPath id="SVGID_89_">
    <use xlink:href="#SVGID_88_"/>
   </clipPath>
   <linearGradient y2="65.938567" x2="-29.095436" y1="65.938567" x1="-29.221475" gradientTransform="matrix(0 11.218 11.218 0 -8591.7979 -3268.6138)" id="SVGID_90_">
    <stop stop-color="#FBB040" offset="0"/>
    <stop stop-color="#F15A29" offset="1"/>
   </linearGradient>
   <rect height="9.313" width="7.934" fill="url(#SVGID_90_)" clip-path="url(#SVGID_89_)" y="200.37" x="540.836"/>
  </g>
  <g>
   <defs>
    <path d="m528.439026,211.854004c-0.474976,0.47699 -0.711975,1.048996 -0.711975,1.713989c0,0.674011 0.237976,1.253006 0.716003,1.738007c0.47699,0.485001 1.050964,0.727997 1.720947,0.727997c0.467041,0 0.904053,-0.127991 1.311035,-0.382004c0.40802,-0.253998 0.697998,-0.591995 0.872009,-1.010986h-1.012024c-0.166016,0.177994 -0.346008,0.313995 -0.544006,0.40799c-0.197998,0.09201 -0.409973,0.139008 -0.640015,0.139008c-0.418945,0 -0.782959,-0.160004 -1.090942,-0.480011c-0.308044,-0.318985 -0.462036,-0.687988 -0.462036,-1.107986c0,-0.444 0.151001,-0.825012 0.452026,-1.143005c0.300964,-0.317001 0.665955,-0.475998 1.093994,-0.475998c0.237976,0 0.466003,0.052994 0.685974,0.155991c0.217041,0.103012 0.400024,0.247009 0.549988,0.429001h0.993042c-0.17804,-0.435989 -0.475037,-0.783997 -0.889038,-1.042999c-0.412964,-0.258987 -0.862,-0.388992 -1.346008,-0.388992c-0.656006,0 -1.223022,0.23999 -1.698975,0.720001" id="SVGID_91_"/>
   </defs>
   <clipPath id="SVGID_92_">
    <use xlink:href="#SVGID_91_"/>
   </clipPath>
   <linearGradient y2="119.240781" x2="-46.866425" y1="119.240781" x1="-47.081664" gradientTransform="matrix(0 6.6326 6.6326 0 -4745.6401 -1839.121)" id="SVGID_93_">
    <stop stop-color="#00AEEF" offset="0"/>
    <stop stop-color="#2A3990" offset="1"/>
   </linearGradient>
   <rect height="4.9" width="4.646" fill="url(#SVGID_93_)" clip-path="url(#SVGID_92_)" y="211.134" x="527.728"/>
  </g>
  <g>
   <defs>
    <polygon points="532.932,211.224 532.932,215.925 535.241,215.925 535.241,215.08 533.804,215.08 533.804,211.224       " id="SVGID_94_"/>
   </defs>
   <clipPath id="SVGID_95_">
    <use xlink:href="#SVGID_94_"/>
   </clipPath>
   <linearGradient y2="124.269007" x2="-96.513179" y1="124.269007" x1="-96.946079" gradientTransform="matrix(0 6.6327 6.6327 0 -4741.6787 -1839.149)" id="SVGID_96_">
    <stop stop-color="#00AEEF" offset="0"/>
    <stop stop-color="#2A3990" offset="1"/>
   </linearGradient>
   <rect height="4.701" width="2.31" fill="url(#SVGID_96_)" clip-path="url(#SVGID_95_)" y="211.224" x="532.932"/>
  </g>
  <g>
   <defs>
    <path d="m536.825012,214.718002c-0.309998,-0.313004 -0.463989,-0.686005 -0.463989,-1.117996c0,-0.449005 0.153015,-0.828003 0.458008,-1.136002c0.305969,-0.309006 0.677979,-0.464005 1.119995,-0.464005l-0.007019,-0.018997c0.440979,0 0.815979,0.156998 1.125977,0.470001s0.465027,0.694 0.465027,1.14299c0,0.440002 -0.156006,0.81601 -0.468994,1.126999c-0.309998,0.311005 -0.682983,0.46701 -1.11499,0.46701c-0.433044,0 -0.804016,-0.156998 -1.114014,-0.470001m-0.622986,-2.863998c-0.476013,0.47699 -0.713013,1.060989 -0.713013,1.746002c0,0.677994 0.241028,1.252991 0.722046,1.724991c0.481995,0.472 1.059998,0.709 1.733948,0.709s1.251038,-0.237 1.730042,-0.710999c0.479004,-0.474991 0.718994,-1.050995 0.718994,-1.729004c0,-0.690994 -0.239014,-1.272995 -0.718994,-1.748001c-0.479004,-0.473999 -1.058044,-0.71199 -1.736023,-0.71199c-0.683044,0 -1.262024,0.23999 -1.737,0.720001" id="SVGID_97_"/>
   </defs>
   <clipPath id="SVGID_98_">
    <use xlink:href="#SVGID_97_"/>
   </clipPath>
   <linearGradient y2="119.240577" x2="-45.973673" y1="119.240577" x1="-46.177546" gradientTransform="matrix(0 6.6326 6.6326 0 -4737.7456 -1839.121)" id="SVGID_99_">
    <stop stop-color="#00AEEF" offset="0"/>
    <stop stop-color="#2A3990" offset="1"/>
   </linearGradient>
   <rect height="4.9" width="4.905" fill="url(#SVGID_99_)" clip-path="url(#SVGID_98_)" y="211.134" x="535.489"/>
  </g>
  <g>
   <defs>
    <path d="m543.379028,211.223999v2.927994c0,0.178009 -0.007019,0.31601 -0.018982,0.41301c-0.014038,0.097 -0.069031,0.225998 -0.169006,0.384995s-0.277039,0.238007 -0.530029,0.238007c-0.138,0 -0.257996,-0.035004 -0.362976,-0.105011c-0.106018,-0.069992 -0.187012,-0.15799 -0.242981,-0.263992c-0.055054,-0.104996 -0.087036,-0.201996 -0.096008,-0.285995c-0.007996,-0.085007 -0.012024,-0.212006 -0.012024,-0.381012v-2.927994h-0.870972v2.929001c0,0.287994 0.023987,0.535004 0.075989,0.740997c0.050964,0.205002 0.151978,0.393997 0.304993,0.569c0.151978,0.171997 0.336975,0.311996 0.551025,0.415009c0.213989,0.103989 0.431946,0.155991 0.652954,0.155991c0.231995,0 0.459045,-0.056992 0.683044,-0.167999c0.223999,-0.112991 0.406982,-0.257004 0.552979,-0.431992c0.145996,-0.177002 0.242004,-0.363998 0.286011,-0.563004c0.044983,-0.199005 0.067993,-0.438995 0.067993,-0.718002v-2.929001h-0.872009l0,0z" id="SVGID_100_"/>
   </defs>
   <clipPath id="SVGID_101_">
    <use xlink:href="#SVGID_100_"/>
   </clipPath>
   <linearGradient y2="121.453097" x2="-72.784497" y1="121.453097" x1="-73.099238" gradientTransform="matrix(0 6.6327 6.6327 0 -4733.0371 -1839.1262)" id="SVGID_102_">
    <stop stop-color="#00AEEF" offset="0"/>
    <stop stop-color="#2A3990" offset="1"/>
   </linearGradient>
   <rect height="4.81" width="3.175" fill="url(#SVGID_102_)" clip-path="url(#SVGID_101_)" y="211.224" x="541.076"/>
  </g>
  <g>
   <defs>
    <path d="m546.018005,212.070007h0.065002c0.304993,0 0.559998,0.016998 0.763,0.05101c0.203979,0.033997 0.400024,0.113998 0.588989,0.241989c0.187988,0.126999 0.337036,0.303009 0.445007,0.528c0.109009,0.223999 0.161987,0.460007 0.161987,0.706009c0,0.233994 -0.047974,0.450989 -0.145996,0.651993c-0.097961,0.201996 -0.229004,0.365005 -0.394958,0.490997c-0.166016,0.124008 -0.341003,0.212006 -0.526001,0.263c-0.184021,0.05101 -0.467041,0.077011 -0.848999,0.077011h-0.109009v-3.01001l0.000977,0zm-0.869995,-0.846008v4.701004h1.005005c0.432007,0 0.800964,-0.033997 1.106018,-0.104004c0.304993,-0.069992 0.586975,-0.214996 0.845947,-0.436005c0.26001,-0.220001 0.459045,-0.48999 0.598999,-0.807999c0.128052,-0.287994 0.196045,-0.584 0.208008,-0.886993v-0.188995c-0.011963,-0.314011 -0.08197,-0.62001 -0.211975,-0.918015c-0.143005,-0.328995 -0.340027,-0.600998 -0.595032,-0.814987c-0.253967,-0.214005 -0.540955,-0.359009 -0.860962,-0.432999c-0.320007,-0.074005 -0.690979,-0.111008 -1.109985,-0.111008h-0.986023l0,0z" id="SVGID_103_"/>
   </defs>
   <clipPath id="SVGID_104_">
    <use xlink:href="#SVGID_103_"/>
   </clipPath>
   <linearGradient y2="124.269219" x2="-62.476792" y1="124.269219" x1="-62.742468" gradientTransform="matrix(0 6.6327 6.6327 0 -4728.7334 -1839.149)" id="SVGID_105_">
    <stop stop-color="#00AEEF" offset="0"/>
    <stop stop-color="#2A3990" offset="1"/>
   </linearGradient>
   <rect height="4.701" width="3.764" fill="url(#SVGID_105_)" clip-path="url(#SVGID_104_)" y="211.224" x="545.148"/>
  </g>
  <g>
   <defs>
    <rect height="95.228" width="88.145" y="126.119" x="464.373" id="SVGID_106_"/>
   </defs>
   <clipPath id="SVGID_107_">
    <use xlink:href="#SVGID_106_"/>
   </clipPath>
   <path d="m527.825012,176.121002l-4.184021,-25.81601c-0.324951,-2.01799 -2.526978,-3.493988 -4.916992,-3.29599l-39.932983,3.298996c-2.389008,0.197998 -3.977997,2.701996 -3.546021,5.593002l5.508026,36.996994c0.431,2.891006 2.648987,4.501999 4.953979,3.600998l32.290985,-12.645996l1.188049,1.96701l0.223999,-0.670013l0.122986,0.203003l0.807983,-2.416992l0.48999,-0.19101l2.072021,1.536011l0.312988,-0.491013l0.031982,0.024002l1.137024,-1.778992l-0.603027,-0.447006l0.460022,-0.179993c2.307007,-0.903 3.909973,-3.270004 3.583008,-5.287003" fill="#FFFFFF" clip-path="url(#SVGID_107_)"/>
  </g>
  <g>
   <defs>
    <path d="m521.645996,181.113998l0.710999,-0.278l-0.494995,-0.365005l-0.216003,0.643005zm-1.39502,-36.013l-39.932983,3.298996c-1.453003,0.121002 -2.610016,1.094009 -3.196014,2.490005c-0.376984,0.897995 -0.519989,1.970001 -0.348999,3.102997l5.507996,36.997009c0.350006,2.347992 1.877014,3.850998 3.673004,3.850998c0.416016,0 0.846008,-0.080002 1.279999,-0.249008l32.290985,-12.645996l-1.479004,-2.445999l-25.711975,9.626999c-0.401001,0.149994 -0.800018,0.221008 -1.186005,0.221008c-1.743988,0 -3.234985,-1.456009 -3.571991,-3.708008l-4.28302,-28.641998c-0.410004,-2.751999 1.112,-5.175995 3.397003,-5.408005l31.071014,-3.138c0.159973,-0.015991 0.320007,-0.024002 0.477966,-0.024002c2.095032,0 3.95105,1.388 4.253052,3.263l3.373962,21.005005c0.229004,1.434006 -0.480957,3.018997 -1.705994,4.112l1.996033,0.427002l-3.128052,1.477997l1.642029,1.216995l1.098999,-0.431c0.598022,-0.232986 1.146973,-0.564987 1.629028,-0.962997c1.376953,-1.140991 2.19397,-2.828003 1.951965,-4.322998l-4.182983,-25.815994c-0.30603,-1.895996 -2.27002,-3.314011 -4.487,-3.314011c-0.140991,0 -0.284973,0.007004 -0.429016,0.018005" id="SVGID_108_"/>
   </defs>
   <clipPath id="SVGID_109_">
    <use xlink:href="#SVGID_108_"/>
   </clipPath>
   <linearGradient y2="10.707069" x2="-2.375662" y1="10.707069" x1="-2.390479" gradientTransform="matrix(6.8948 46.2974 46.2974 -6.8948 -40303.6602 -8354.9971)" id="SVGID_110_">
    <stop stop-color="#00AEEF" offset="0"/>
    <stop stop-color="#2A3990" offset="1"/>
   </linearGradient>
   <polygon points="528.443,137.363 536.842,193.762 477.753,202.562    469.354,146.163  " fill="url(#SVGID_110_)" clip-path="url(#SVGID_109_)"/>
  </g>
  <g>
   <defs>
    <rect height="95.228" width="88.145" y="126.119" x="464.373" id="SVGID_111_"/>
   </defs>
   <clipPath id="SVGID_112_">
    <use xlink:href="#SVGID_111_"/>
   </clipPath>
   <path d="m522.38501,177.5l-30.117004,11.171997c-2.006989,0.744003 -3.94101,-0.671997 -4.312988,-3.158997l-4.27301,-28.567993c-0.371002,-2.486008 1.01001,-4.684006 3.078003,-4.899002l31.062988,-3.238007c2.067017,-0.216003 3.98999,1.102005 4.285034,2.936005l3.382996,21.080002c0.292969,1.834991 -1.101013,3.931992 -3.106018,4.675995" fill="#E6E7E8" clip-path="url(#SVGID_112_)"/>
   <path d="m517.875977,149.162994c1.856018,-0.197998 3.578003,0.979996 3.843018,2.634003l3.393005,21.153c0.264954,1.654999 -0.981018,3.53299 -2.78302,4.194992l-30.128998,11.072998c-1.803009,0.66301 -3.533997,-0.606003 -3.867004,-2.832001l-4.264008,-28.492996c-0.333984,-2.227005 0.900024,-4.194 2.759003,-4.393997l31.048004,-3.335999m-0.112976,-0.710999l-31.071991,3.139008c-2.283997,0.229996 -3.807007,2.654999 -3.395996,5.405991l4.28299,28.643005c0.411011,2.751007 2.54599,4.315002 4.757996,3.487l30.106018,-11.270996c2.213013,-0.82901 3.747986,-3.143005 3.425964,-5.160004l-3.373962,-21.003998c-0.325989,-2.016998 -2.447021,-3.471008 -4.731018,-3.240005" fill="#FFFFFF" clip-path="url(#SVGID_112_)"/>
   <path d="m489.088013,155.669998l4.113983,-0.552994l0.580017,4.946991l-0.636993,0.072998l0.636993,-0.072998l0.071991,0.60701l-4.074005,0.690994l-0.691986,-5.692001zm1.429993,1.106995l0.377014,3.091003l1.537994,-0.263l-0.354004,-3.039001l-1.561005,0.210999z" fill="#414042" clip-path="url(#SVGID_112_)"/>
   <rect height="1.287" width="26.252" fill="#414042" clip-path="url(#SVGID_112_)" transform="matrix(-0.9886 0.1503 -0.1503 -0.9886 1030.84 233.883)" y="155.265" x="493.455"/>
   <path d="m489.955994,162.798996l4.056,-0.784988l0.585999,4.984985l-0.640991,0.074005l0.640991,-0.074005l0.06601,0.570007l-4.013,0.925003l-0.695007,-5.695007zm1.420013,1.033997l0.377991,3.089005l1.497009,-0.347l-0.358002,-3.035004l-1.516998,0.292999z" fill="#414042" clip-path="url(#SVGID_112_)"/>
   <rect height="1.287" width="26.039" fill="#414042" clip-path="url(#SVGID_112_)" transform="matrix(-0.9783 0.2071 -0.2071 -0.9783 1036.85 215.61)" y="161.437" x="494.12"/>
   <path d="m490.828003,169.921997l3.988983,-1.013l0.593018,5.024002l-0.640015,0.076004l0.640015,-0.076004l0.062988,0.540009l-3.951996,1.159988l-0.692993,-5.710999zm1.411987,0.971008l0.376007,3.077011l1.451996,-0.42601l-0.355011,-3.029999l-1.472992,0.378998z" fill="#414042" clip-path="url(#SVGID_112_)"/>
   <rect height="1.288" width="25.911" fill="#414042" clip-path="url(#SVGID_112_)" transform="matrix(-0.9645 0.264 -0.264 -0.9645 1041.81 196.485)" y="167.609" x="494.743"/>
   <path d="m491.695007,177.046997l3.933014,-1.250992l0.595978,5.070999l-0.640991,0.072998l0.640991,-0.072998l0.057007,0.505997l-3.889984,1.397003l-0.696014,-5.723007zm1.40799,0.903l0.372009,3.064011l1.41098,-0.506012l-0.353973,-3.013l-1.429016,0.455002z" fill="#414042" clip-path="url(#SVGID_112_)"/>
   <rect height="1.287" width="25.873" fill="#414042" clip-path="url(#SVGID_112_)" transform="matrix(-0.9473 0.3202 -0.3202 -0.9473 1045.6 176.91)" y="173.782" x="495.32"/>
  </g>
  <g>
   <defs>
    <polygon points="492.151,157.996 491.972,157.784 490.994,158.625 492.433,160.302 495.402,154.378     494.251,153.802   " id="SVGID_113_"/>
   </defs>
   <clipPath id="SVGID_114_">
    <use xlink:href="#SVGID_113_"/>
   </clipPath>
   <linearGradient y2="105.879615" x2="-56.966285" y1="105.879615" x1="-57.19326" gradientTransform="matrix(4.4071 0 0 -4.4071 -561.8083 3867.9333)" id="SVGID_115_">
    <stop stop-color="#FBB03B" offset="0"/>
    <stop stop-color="#F79421" offset="1"/>
   </linearGradient>
   <rect height="6.5" width="4.408" fill="url(#SVGID_115_)" clip-path="url(#SVGID_114_)" y="153.802" x="490.994"/>
  </g>
  <g>
   <defs>
    <polygon points="492.921,164.673 492.767,164.499 491.802,165.349 492.604,166.259 493.247,166.996     496.146,160.888 494.985,160.334   " id="SVGID_116_"/>
   </defs>
   <clipPath id="SVGID_117_">
    <use xlink:href="#SVGID_116_"/>
   </clipPath>
   <linearGradient y2="102.324713" x2="-58.206543" y1="102.324713" x1="-58.436578" gradientTransform="matrix(4.3456 0 0 -4.3456 -541.9967 3822.7725)" id="SVGID_118_">
    <stop stop-color="#FBB03B" offset="0"/>
    <stop stop-color="#F79421" offset="1"/>
   </linearGradient>
   <rect height="6.662" width="4.345" fill="url(#SVGID_118_)" clip-path="url(#SVGID_117_)" y="160.334" x="491.802"/>
  </g>
  <g>
   <defs>
    <polygon points="493.692,171.354 493.566,171.214 492.611,172.076 493.396,172.948 494.055,173.682     496.889,167.395 495.714,166.865   " id="SVGID_119_"/>
   </defs>
   <clipPath id="SVGID_120_">
    <use xlink:href="#SVGID_119_"/>
   </clipPath>
   <linearGradient y2="99.039953" x2="-59.581766" y1="99.039953" x1="-59.815457" gradientTransform="matrix(4.2785 0 0 -4.2785 -520.4542 3772.8748)" id="SVGID_121_">
    <stop stop-color="#FBB03B" offset="0"/>
    <stop stop-color="#F79421" offset="1"/>
   </linearGradient>
   <rect height="6.817" width="4.277" fill="url(#SVGID_121_)" clip-path="url(#SVGID_120_)" y="166.865" x="492.611"/>
  </g>
  <g>
   <defs>
    <path d="m493.423004,178.802002h0.001984l-0.001984,-0.001999v0.001999l0,0zm1.044006,-0.764999l-0.100006,-0.109009l-0.941986,0.874008l0.770996,0.834991l0.673981,0.731003l2.76001,-6.464996l-1.179993,-0.503006l-1.983002,4.637009z" id="SVGID_122_"/>
   </defs>
   <clipPath id="SVGID_123_">
    <use xlink:href="#SVGID_122_"/>
   </clipPath>
   <linearGradient y2="95.955982" x2="-61.073702" y1="95.955982" x1="-61.311458" gradientTransform="matrix(4.2067 0 0 -4.2067 -497.463 3719.0496)" id="SVGID_124_">
    <stop stop-color="#FBB03B" offset="0"/>
    <stop stop-color="#F79421" offset="1"/>
   </linearGradient>
   <rect height="6.968" width="4.206" fill="url(#SVGID_124_)" clip-path="url(#SVGID_123_)" y="173.4" x="493.423"/>
  </g>
  <g>
   <defs>
    <rect height="95.228" width="88.145" y="126.119" x="464.373" id="SVGID_125_"/>
   </defs>
   <clipPath id="SVGID_126_">
    <use xlink:href="#SVGID_125_"/>
   </clipPath>
   <polygon points="520.714,183.912 520.265,183.167 520.342,182.936 520.832,182.745    521.05,182.905  " fill="#AFB1B4" clip-path="url(#SVGID_126_)"/>
   <polygon points="520.265,183.168 519.525,181.945 521.647,181.114 521.049,182.906    520.831,182.744 520.342,182.936  " fill="#AFB1B4" clip-path="url(#SVGID_126_)"/>
   <path d="m524.429993,182.371994l-0.176025,-0.130005l0.132996,-0.207993l-0.602966,-0.447006l0.460022,-0.180008c0.434998,-0.169998 0.844971,-0.391998 1.221985,-0.654999l-1.036011,1.62001" fill="#AFB1B4" clip-path="url(#SVGID_126_)"/>
   <path d="m524.254028,182.242004l-1.895996,-1.404999l2.312988,-0.907013l0.895996,0.664001l-0.10199,0.159012c-0.377014,0.261993 -0.786987,0.485001 -1.221985,0.654999l-0.460022,0.179993l0.603027,0.445999l-0.132019,0.208008" fill="#AFB1B4" clip-path="url(#SVGID_126_)"/>
  </g>
  <g>
   <defs>
    <path d="m522.442017,177.854996l-4.395996,1.645004l1.479004,2.445999l2.120972,-0.832001l0.216003,-0.643005l0.494995,0.365005l2.313049,-0.906006l-1.642029,-1.216995l3.127991,-1.477997l-1.995972,-0.427002c-0.497009,0.445007 -1.079041,0.809006 -1.718018,1.046997" id="SVGID_127_"/>
   </defs>
   <clipPath id="SVGID_128_">
    <use xlink:href="#SVGID_127_"/>
   </clipPath>
   <linearGradient y2="88.003238" x2="-21.681451" y1="88.003238" x1="-21.785938" gradientTransform="matrix(6.8948 46.2974 46.2974 -6.8948 -40303.6602 -8354.9971)" id="SVGID_129_">
    <stop stop-color="#007CAA" offset="0"/>
    <stop stop-color="#1A2066" offset="1"/>
   </linearGradient>
   <polygon points="525.981,175.626 526.905,181.834 518.223,183.128    517.299,176.919  " fill="url(#SVGID_129_)" clip-path="url(#SVGID_128_)"/>
  </g>
  <g>
   <defs>
    <rect height="95.228" width="88.145" y="126.119" x="464.373" id="SVGID_130_"/>
   </defs>
   <clipPath id="SVGID_131_">
    <use xlink:href="#SVGID_130_"/>
   </clipPath>
   <path d="m517.659973,178.860001l-2.388,-3.949997l8.041016,1.718002c-0.302002,0.210999 -0.634033,0.386993 -0.985046,0.516998l-4.667969,1.714996" fill="#A2A4A7" clip-path="url(#SVGID_131_)"/>
   <path d="m518.047974,179.501007l-0.387024,-0.640991l4.666992,-1.715012c0.352051,-0.128998 0.683044,-0.304993 0.985046,-0.516998l0.847961,0.181c-0.497009,0.444 -1.079956,0.807999 -1.719971,1.046997l-4.393005,1.645004" fill="#AFB1B4" clip-path="url(#SVGID_131_)"/>
  </g>
  <g>
   <defs>
    <polygon points="515.618,174.443 521.061,183.445 522.21,180.003 524.777,181.905 525.913,180.126     523.374,178.247 526.11,176.567   " id="SVGID_132_"/>
   </defs>
   <clipPath id="SVGID_133_">
    <use xlink:href="#SVGID_132_"/>
   </clipPath>
   <linearGradient y2="74.157397" x2="-22.404688" y1="74.157397" x1="-22.500046" gradientTransform="matrix(10.4915 0 0 -10.4915 -2417.2559 9012.874)" id="SVGID_134_">
    <stop stop-color="#FBB040" offset="0"/>
    <stop stop-color="#F15A29" offset="1"/>
   </linearGradient>
   <rect height="9.002" width="10.492" fill="url(#SVGID_134_)" clip-path="url(#SVGID_133_)" y="174.443" x="515.618"/>
  </g>
  <g>
   <defs>
    <rect height="95.228" width="88.145" y="126.119" x="464.373" id="SVGID_135_"/>
   </defs>
   <clipPath id="SVGID_136_">
    <use xlink:href="#SVGID_135_"/>
   </clipPath>
   <path d="m525.16803,148.397003c-0.325989,-2.018005 -2.526978,-3.492996 -4.916992,-3.296005l-10.843018,0.895996c0.244019,0.38501 0.540009,0.743011 0.88501,1.065002c-0.029999,0.229004 -0.046997,0.459 -0.046997,0.690002c0,2.229004 1.455994,4.147995 3.529968,4.975998c-0.516968,0.572006 -0.830994,1.328003 -0.830994,2.156998c0,0.116013 0.006042,0.231003 0.018005,0.343002c-1.145996,0.154007 -2.030975,1.138 -2.030975,2.324997c0,1.292999 1.052002,2.346008 2.345001,2.346008c1.122986,0 2.062988,-0.792999 2.292969,-1.848007c0.192993,0.036011 0.393005,0.055008 0.596008,0.055008c1.640015,0 2.994995,-1.229004 3.195984,-2.813995c0.915039,0.472992 1.96106,0.737991 3.050049,0.737991c1.390991,0 2.721985,-0.434006 3.799988,-1.194992l-1.044006,-6.438004z" fill="#FFFFFF" clip-path="url(#SVGID_136_)"/>
  </g>
  <g>
   <defs>
    <path d="m512.075989,157.552994c0,0.662994 0.538025,1.200989 1.200012,1.200989c0.664978,0 1.200989,-0.537994 1.200989,-1.200989s-0.536011,-1.201004 -1.200989,-1.201004c-0.661987,0.000015 -1.200012,0.53801 -1.200012,1.201004m2.014038,-2.667999c0,1.146988 0.929016,2.076996 2.075012,2.076996c1.146973,0 2.076965,-0.930008 2.076965,-2.076996s-0.929993,-2.076004 -2.076965,-2.076004c-1.146057,0.000015 -2.075012,0.929016 -2.075012,2.076004m0.36499,-15.903992c-0.01001,0 -0.020996,0 -0.031006,0c-2.579987,0 -4.673004,1.910995 -4.673004,4.26799c0,1.371002 0.708008,2.590012 1.807007,3.37001c-0.106995,0.360992 -0.166992,0.73999 -0.166992,1.132004c0,2.357986 2.094025,4.268997 4.672028,4.268997c0.529968,0 1.037964,-0.082001 1.514954,-0.231003c0.716003,1.806992 2.609009,3.095993 4.834045,3.095993c1.912964,0 3.58197,-0.955994 4.46698,-2.373001c0.934021,0.959 2.237976,1.554001 3.682007,1.554001c2.838989,0 5.141968,-2.298996 5.141968,-5.136002c0,-0.630997 -0.113953,-1.233994 -0.32196,-1.791992c0.963989,-0.764008 1.586975,-1.977005 1.586975,-3.345001c0,-2.311005 -1.78302,-4.186005 -3.979004,-4.186005c-0.050964,0 -0.099976,0.001999 -0.146973,0.003006c-0.536011,-1.861008 -2.475037,-3.240005 -4.786011,-3.240005c-0.721985,0 -1.406982,0.136002 -2.02301,0.378006c-1.06897,-1.714996 -3.085022,-2.871002 -5.39801,-2.871002c-3.221985,0 -5.869995,2.238998 -6.179993,5.104004" id="SVGID_137_"/>
   </defs>
   <clipPath id="SVGID_138_">
    <use xlink:href="#SVGID_137_"/>
   </clipPath>
   <linearGradient y2="28.465086" x2="-7.756937" y1="28.465086" x1="-7.793681" gradientTransform="matrix(27.2151 0 0 -27.2151 -7590.7212 23061.5293)" id="SVGID_139_">
    <stop stop-color="#00AEEF" offset="0"/>
    <stop stop-color="#2A3990" offset="1"/>
   </linearGradient>
   <rect height="24.877" width="27.215" fill="url(#SVGID_139_)" clip-path="url(#SVGID_138_)" y="133.877" x="509.751"/>
  </g>
  <rect height="602.591" width="131.81" fill="#93536D" y="239.321" x="440.79"/>
  <path d="m451.460999,430.696991c-4.126984,0 -7.868988,1.605011 -10.671997,4.207001v22.998993c2.803009,2.602997 6.545013,4.205994 10.671997,4.205994c8.677002,0 15.704987,-7.031982 15.704987,-15.704987c0,-8.674988 -7.027985,-15.707001 -15.704987,-15.707001m121.140015,-109.694c-6.664001,-8.822998 -18.156006,-14.654999 -31.220032,-14.654999c-5.461975,0 -10.641968,1.026001 -15.313965,2.855011c-8.078003,-12.96402 -23.332001,-21.713013 -40.822998,-21.713013c-20.632019,0 -38.153015,12.160004 -44.45401,29.061005v106.873993c3.144012,0.837006 6.455994,1.307007 9.894989,1.307007c4.009003,0 7.857025,-0.619995 11.447021,-1.742004c5.423981,13.658997 19.746979,23.415009 36.572998,23.415009c14.470032,0 27.090027,-7.230011 33.786987,-17.947021c7.062988,7.247009 16.927979,11.757019 27.853027,11.757019c4.282959,0 8.401001,-0.703003 12.256958,-1.981995v-117.230011l-0.000977,0z" fill="#A0677E"/>
 </g>
</svg>